<?xml version="1.0" standalone="no"?>
<!DOCTYPE svg PUBLIC "-//W3C//DTD SVG 20010904//EN"
 "http://www.w3.org/TR/2001/REC-SVG-20010904/DTD/svg10.dtd">
<svg version="1.0" xmlns="http://www.w3.org/2000/svg"
 width="517.000000pt" height="517.000000pt" viewBox="0 0 517.000000 517.000000"
 preserveAspectRatio="xMidYMid meet">
<metadata>
Created by potrace 1.14, written by Peter Selinger 2001-2017
</metadata>
<g transform="translate(0.000000,517.000000) scale(0.100000,-0.100000)"
fill="#000000" stroke="none">
<path d="M2616 4932 c3 -135 60 -302 152 -446 14 -23 45 -75 67 -116 61 -110
95 -170 122 -212 12 -21 23 -42 23 -47 0 -5 6 -16 13 -23 7 -7 26 -38 43 -68
16 -30 33 -58 39 -62 5 -4 6 -8 1 -8 -5 0 -4 -6 2 -13 10 -11 44 -88 148 -330
19 -44 32 -83 29 -87 -3 -5 0 -12 6 -15 5 -4 8 -13 5 -20 -2 -7 -2 -16 1 -19
22 -21 24 -401 3 -401 -1 0 -3 -7 -5 -15 -16 -82 -75 -227 -97 -241 -5 -3 -9
-10 -8 -14 2 -4 -18 -35 -44 -70 -89 -122 -236 -237 -374 -294 -37 -15 -70
-29 -74 -29 -5 -1 -9 -2 -10 -3 -2 0 -11 -2 -20 -5 -10 -2 -24 -6 -30 -7 -7
-2 -33 -7 -58 -11 -25 -4 -54 -9 -65 -11 -11 -2 -51 -4 -89 -4 l-68 -1 3 -137
c2 -76 6 -142 8 -148 6 -11 6 -12 15 -75 3 -22 10 -49 16 -60 6 -11 9 -20 6
-20 -2 0 7 -30 21 -67 14 -38 30 -81 36 -98 22 -61 137 -255 174 -293 7 -7 13
-19 13 -25 0 -15 23 8 26 25 1 7 9 42 19 77 14 57 23 83 51 156 4 11 6 24 5
29 -1 4 4 15 11 23 7 8 13 21 14 27 5 38 146 303 168 318 6 4 7 8 3 8 -5 0 13
28 40 63 118 154 252 294 364 379 58 44 68 58 123 163 32 61 72 170 80 215 3
14 5 25 6 25 2 0 9 35 16 90 9 63 9 278 0 325 -4 19 -9 46 -11 60 -8 53 -16
82 -45 159 -30 83 -129 277 -187 369 -18 29 -33 54 -33 57 0 20 -260 386 -359
505 -25 30 -55 65 -66 79 -11 13 -39 45 -62 70 -47 51 -138 225 -149 284 -10
57 -19 52 -18 -11z"/>
<path d="M2396 4872 c13 -8 3 -152 -14 -207 -13 -43 -61 -143 -76 -158 -6 -6
-18 -21 -26 -33 -8 -12 -46 -56 -85 -99 -100 -110 -107 -119 -135 -151 -34
-39 -241 -335 -248 -354 -3 -8 -16 -32 -29 -52 -37 -60 -143 -268 -137 -268 4
0 1 -6 -5 -13 -6 -8 -8 -17 -4 -20 3 -4 1 -7 -5 -7 -7 0 -11 -3 -10 -7 1 -5
-4 -39 -12 -78 -7 -38 -14 -110 -14 -160 0 -92 19 -221 35 -230 4 -3 6 -12 2
-20 -3 -8 -1 -15 4 -15 5 0 10 -6 10 -13 0 -17 58 -131 93 -182 50 -72 190
-205 218 -205 6 0 12 -4 12 -8 0 -10 183 -90 220 -96 14 -3 25 -5 25 -6 0 -6
86 -12 165 -12 83 0 114 3 180 16 88 17 212 74 290 131 61 45 148 138 193 205
43 65 110 223 111 262 1 16 4 28 7 28 3 0 6 7 6 15 0 29 -12 14 -41 -50 -16
-36 -32 -65 -37 -65 -4 0 -10 -8 -13 -18 -7 -21 -78 -97 -124 -132 -18 -14
-42 -32 -53 -41 -11 -9 -34 -23 -52 -30 -17 -7 -35 -17 -38 -22 -3 -4 -15 -10
-25 -12 -10 -2 -19 -4 -19 -5 0 -1 -7 -3 -15 -5 -8 -1 -41 -10 -73 -20 -59
-17 -216 -23 -279 -10 -60 12 -168 49 -168 57 0 4 -6 8 -13 8 -16 0 -153 132
-188 180 -51 71 -111 196 -123 255 -3 11 -9 40 -15 65 -10 45 -9 264 2 309 31
123 69 208 149 339 22 37 49 81 58 97 10 17 61 102 115 190 199 327 214 358
216 472 1 66 -9 160 -18 176 -2 4 -10 7 -16 7 -9 0 -9 -2 -1 -8z"/>
<path d="M2490 3820 c-25 -12 -69 -47 -100 -80 -129 -138 -159 -365 -73 -549
52 -113 126 -178 227 -201 120 -27 253 60 318 207 19 43 23 55 35 118 8 41 8
139 -1 198 -19 132 -109 262 -211 307 -56 25 -140 24 -195 0z"/>
<path d="M1475 3040 c-8 -16 -16 -37 -18 -47 -1 -10 -6 -24 -11 -31 -9 -16
-16 -192 -7 -207 3 -5 7 -19 8 -30 6 -39 61 -141 97 -180 l37 -40 -4 115 c-2
63 -7 124 -12 135 l-7 20 14 -20 c17 -24 37 -108 42 -185 3 -30 5 -62 6 -70 1
-16 19 21 25 53 2 10 6 26 9 35 23 77 11 214 -26 301 -23 55 -102 166 -123
174 -10 4 -20 -3 -30 -23z"/>
<path d="M3667 3043 c-40 -40 -68 -80 -88 -123 -27 -56 -50 -131 -43 -141 2
-4 1 -10 -4 -12 -6 -4 -8 -132 -2 -132 1 0 3 -12 5 -26 6 -47 26 -109 34 -109
5 0 11 33 15 73 6 78 9 95 20 145 9 38 26 34 20 -6 -3 -15 -6 -38 -8 -52 -2
-14 -4 -26 -6 -27 -6 -8 -4 -91 3 -106 7 -16 13 -12 46 30 50 63 65 94 86 178
12 49 16 90 12 137 -6 71 -25 149 -40 159 -5 3 -8 10 -7 15 2 17 -26 15 -43
-3z"/>
<path d="M924 2862 c-19 -3 -21 -9 -19 -55 2 -29 4 -52 5 -52 1 0 3 -11 5 -25
19 -147 114 -326 241 -455 57 -59 127 -115 143 -115 6 0 11 -4 11 -8 0 -8 150
-83 167 -84 4 0 15 -4 24 -9 21 -11 79 -21 79 -13 0 11 -113 205 -135 231 -5
7 -16 19 -22 27 -7 8 -13 19 -13 25 0 5 -3 11 -7 13 -14 6 -115 129 -111 134
8 8 171 -157 224 -226 68 -88 134 -187 134 -200 0 -6 4 -9 9 -6 5 3 6 23 3 43
-3 21 -6 48 -6 61 -1 12 -4 22 -7 22 -3 0 -6 6 -7 13 -2 27 -14 72 -20 77 -4
3 -8 12 -10 20 -4 27 -94 200 -103 200 -5 0 -9 5 -9 11 0 6 -6 16 -12 24 -7 7
-38 43 -68 79 -30 35 -58 65 -63 65 -4 1 -32 21 -61 45 -53 43 -200 123 -240
131 -12 2 -21 4 -21 5 0 1 -7 3 -15 5 -8 2 -28 8 -45 12 -16 5 -39 7 -51 5z"/>
<path d="M4219 2860 c-7 -5 -16 -7 -20 -4 -4 2 -10 0 -14 -6 -4 -6 -11 -8 -16
-5 -5 4 -15 3 -21 -2 -7 -4 -18 -8 -23 -9 -6 -1 -45 -18 -86 -38 -128 -60
-207 -121 -321 -247 -51 -55 -153 -236 -163 -287 -2 -9 -4 -17 -5 -17 -2 0 -7
-20 -15 -59 -3 -16 -8 -33 -10 -36 -3 -4 -7 -32 -10 -61 l-6 -54 23 35 c12 19
25 37 28 40 3 3 17 23 30 44 54 90 187 239 300 339 56 50 63 40 10 -15 -23
-24 -56 -61 -73 -82 -18 -22 -40 -48 -50 -58 -28 -30 -114 -161 -152 -233
l-35 -65 25 4 c78 14 224 82 305 141 41 30 141 131 180 181 23 29 85 126 85
133 0 3 15 41 33 84 19 44 34 92 34 108 1 16 5 32 9 35 4 2 6 13 4 23 -2 10 0
35 5 54 11 51 -14 79 -51 57z"/>
<path d="M1813 2507 c-8 -14 -11 -207 -2 -207 3 0 6 -24 7 -52 1 -48 7 -106
12 -118 1 -3 2 -9 1 -13 -1 -5 10 -54 25 -110 14 -56 27 -110 29 -119 2 -9 9
-26 15 -37 6 -12 8 -21 6 -21 -7 0 55 -145 100 -235 41 -82 169 -275 217 -325
47 -51 172 -138 207 -145 3 -1 22 -9 44 -18 62 -27 66 -25 61 41 -14 172 -56
336 -126 487 -13 28 -24 52 -24 55 0 3 -6 15 -13 28 -7 12 -10 22 -8 22 13 0
-135 274 -202 374 -126 188 -332 420 -349 393z"/>
<path d="M3329 2456 c-51 -49 -117 -121 -165 -178 -42 -50 -157 -214 -180
-258 -13 -25 -35 -63 -49 -85 -14 -22 -27 -47 -30 -55 -4 -8 -22 -47 -41 -87
-19 -40 -37 -82 -39 -94 -3 -13 -8 -25 -12 -28 -5 -3 -9 -13 -11 -21 -2 -8
-13 -35 -24 -60 -19 -40 -53 -133 -57 -152 0 -5 -1 -9 -2 -10 0 -2 -2 -10 -4
-19 -1 -10 -10 -49 -19 -89 -9 -40 -20 -109 -23 -153 l-6 -80 29 7 c38 10 159
71 204 103 61 45 126 119 194 221 62 92 166 288 166 312 0 5 5 10 12 10 6 0 9
3 5 6 -3 3 5 34 18 68 24 65 48 148 70 249 3 12 8 38 11 57 4 19 9 44 11 55 9
40 13 324 5 329 -5 3 -33 -19 -63 -48z"/>
<path d="M3449 2308 c-15 -170 -21 -213 -30 -216 -5 -2 -7 -7 -4 -12 5 -8 -29
-168 -42 -200 -3 -8 -7 -19 -7 -25 -2 -14 17 -26 24 -15 3 5 15 11 25 13 11 1
25 5 30 9 17 10 181 59 207 62 13 1 29 5 35 9 7 4 30 9 53 11 45 4 55 9 46 25
-4 6 -47 8 -109 5 -126 -5 -137 -6 -137 -16 0 -4 -8 -8 -17 -8 -10 0 -31 -7
-47 -15 -15 -8 -30 -15 -33 -15 -5 0 1 36 18 100 14 56 18 241 6 257 -5 7 -7
20 -3 28 3 8 1 15 -4 15 -6 0 -10 -6 -11 -12z"/>
<path d="M1710 2278 c0 -13 -3 -28 -7 -31 -6 -7 -6 -64 1 -172 1 -22 5 -46 10
-53 4 -7 4 -16 1 -22 -3 -5 -1 -10 5 -10 6 0 8 -4 5 -10 -3 -5 -3 -16 2 -22
15 -24 12 -40 -5 -33 -9 4 -23 8 -29 8 -7 0 -13 4 -13 8 0 4 -12 10 -27 14
-16 4 -37 9 -48 13 -27 7 -182 11 -207 4 -17 -4 -16 -7 12 -18 18 -8 36 -12
40 -9 5 3 11 1 15 -5 4 -6 11 -8 16 -5 5 4 9 3 9 -2 0 -4 15 -9 34 -10 19 -2
87 -21 152 -43 65 -22 123 -40 130 -40 8 0 4 24 -12 76 -33 109 -58 234 -68
342 -3 39 -16 55 -16 20z"/>
<path d="M980 2192 c-55 -7 -130 -33 -130 -46 0 -14 64 -76 78 -76 4 0 14 -6
21 -12 6 -7 15 -13 19 -14 4 0 20 -6 35 -12 16 -7 38 -12 50 -13 12 0 31 -4
41 -8 22 -8 143 12 158 27 6 6 -7 15 -39 26 -26 9 -59 23 -73 31 -22 13 -23
14 -5 15 21 0 109 -31 121 -43 4 -4 13 -7 21 -7 11 0 10 5 -3 25 -9 14 -23 25
-30 25 -8 0 -14 4 -14 8 0 5 -25 21 -55 35 -53 27 -146 45 -195 39z"/>
<path d="M4095 2181 c-68 -18 -195 -98 -179 -113 3 -4 24 2 47 13 64 29 91 22
29 -8 -41 -20 -50 -28 -41 -39 6 -7 14 -13 17 -12 4 1 27 -2 52 -7 25 -5 47
-8 50 -8 3 1 25 4 49 8 60 9 118 33 167 69 62 46 69 62 39 82 -29 19 -180 29
-230 15z"/>
<path d="M810 1914 c-47 -8 -101 -16 -120 -19 -19 -3 -62 -12 -95 -20 -33 -9
-67 -18 -75 -20 -8 -2 -16 -4 -17 -5 -2 -2 -6 -3 -10 -4 -14 -3 -88 -27 -115
-38 -43 -16 -36 -71 16 -123 33 -32 61 -41 266 -81 49 -10 156 -42 225 -68 39
-15 78 -29 88 -31 78 -18 459 -238 526 -303 9 -10 35 -30 56 -47 53 -39 81
-64 185 -166 326 -322 816 -446 1255 -317 39 11 71 20 72 19 2 0 24 9 50 20
90 39 98 42 106 41 4 -1 7 2 7 7 0 5 10 13 23 16 26 8 213 131 223 146 3 6
-18 -2 -47 -18 -30 -15 -60 -28 -69 -30 -8 -1 -16 -6 -18 -12 -2 -5 -10 -7
-18 -4 -8 3 -14 1 -14 -4 0 -5 -6 -10 -12 -10 -7 -1 -51 -11 -98 -24 -128 -34
-328 -32 -464 5 -128 35 -230 82 -330 155 -103 74 -203 141 -211 141 -3 0 -24
12 -48 27 -81 52 -509 270 -662 338 -22 10 -73 33 -112 51 -40 19 -75 34 -79
34 -3 0 -29 11 -57 23 -29 13 -77 32 -107 43 -30 10 -58 23 -61 27 -3 5 -9 8
-13 8 -3 -1 -7 -1 -8 0 -2 0 -10 2 -18 4 -8 2 -33 11 -55 21 -32 14 -36 19
-20 22 17 4 163 -13 220 -24 11 -3 32 -6 47 -9 15 -2 31 -6 35 -8 4 -3 26 -8
47 -11 22 -4 45 -11 51 -16 7 -5 14 -7 17 -5 3 3 43 -8 89 -25 46 -17 85 -30
86 -30 23 -1 226 -91 235 -105 4 -5 8 -7 8 -3 0 11 120 -56 224 -124 48 -32
92 -58 96 -58 5 0 11 -6 13 -12 3 -8 6 -6 6 5 1 9 -3 17 -9 17 -5 0 -10 7 -10
15 0 8 -4 15 -8 15 -4 0 -17 14 -27 32 -11 17 -30 48 -42 67 -13 20 -28 47
-35 61 -7 14 -15 27 -18 30 -6 6 -54 101 -56 110 -1 7 -32 80 -46 107 -6 13
-14 21 -16 18 -3 -3 -10 -1 -16 4 -11 10 -232 88 -270 95 -266 56 -280 58
-481 61 -132 1 -229 -2 -285 -11z"/>
<path d="M3895 1915 c-49 -7 -99 -15 -110 -18 -11 -3 -38 -9 -60 -12 -22 -4
-44 -8 -50 -9 -5 -2 -23 -6 -40 -10 -44 -12 -224 -72 -266 -90 -26 -11 -41
-26 -52 -53 -33 -83 -90 -198 -98 -201 -5 -2 -9 -9 -9 -16 0 -6 -28 -54 -63
-106 -35 -52 -67 -102 -72 -110 -5 -8 14 2 43 23 29 20 56 37 61 37 5 0 11 4
13 8 9 23 294 169 427 219 70 26 238 80 277 88 23 5 61 13 94 20 8 2 15 4 15
5 0 2 80 12 99 11 28 0 38 -23 18 -42 -13 -13 -119 -61 -142 -65 -3 0 -31 -12
-64 -27 -32 -15 -60 -27 -61 -27 -1 0 -24 -10 -51 -22 -27 -12 -51 -23 -54
-23 -3 -1 -21 -8 -40 -17 -19 -8 -84 -37 -145 -63 -60 -26 -114 -51 -120 -55
-5 -4 -39 -20 -75 -34 -36 -15 -96 -42 -135 -61 -38 -18 -99 -47 -135 -64 -36
-17 -83 -41 -105 -54 -50 -28 -180 -88 -203 -92 -9 -2 -18 -4 -19 -5 -2 -2 -6
-3 -10 -4 -82 -21 -94 -28 -83 -41 7 -8 29 -25 49 -37 20 -12 39 -27 43 -32 4
-6 8 -7 8 -2 0 5 6 4 13 -1 6 -6 35 -18 62 -27 161 -52 329 -9 465 120 90 86
316 264 334 264 2 0 51 29 110 64 58 36 106 63 106 61 0 -2 33 12 73 32 98 49
360 135 447 148 14 2 41 7 60 11 46 9 47 9 175 24 148 17 190 35 217 96 25 58
19 71 -47 94 -77 26 -122 41 -145 45 -11 3 -28 7 -37 9 -70 17 -117 26 -178
37 -97 16 -431 19 -540 4z"/>
</g>
</svg>
